<mxfile host="app.diagrams.net" agent="Mozilla/5.0 (Macintosh; Intel Mac OS X 10_15_7) AppleWebKit/537.36 (KHTML, like Gecko) Chrome/129.0.0.0 Safari/537.36" version="24.7.7">
  <diagram name="第 1 页" id="vH1QzqS9QlZ15hlONRdw">
    <mxGraphModel dx="1114" dy="605" grid="1" gridSize="10" guides="1" tooltips="1" connect="1" arrows="1" fold="1" page="1" pageScale="1" pageWidth="827" pageHeight="1169" math="0" shadow="0">
      <root>
        <mxCell id="0" />
        <mxCell id="1" parent="0" />
        <mxCell id="Kv4apIEkA6WufgwFAct2-4" style="edgeStyle=orthogonalEdgeStyle;rounded=0;orthogonalLoop=1;jettySize=auto;html=1;entryX=0.5;entryY=0;entryDx=0;entryDy=0;flowAnimation=1;" edge="1" parent="1" source="Kv4apIEkA6WufgwFAct2-1" target="Kv4apIEkA6WufgwFAct2-2">
          <mxGeometry relative="1" as="geometry" />
        </mxCell>
        <mxCell id="Kv4apIEkA6WufgwFAct2-5" value="state and &lt;br&gt;change event as props" style="edgeLabel;html=1;align=center;verticalAlign=middle;resizable=0;points=[];" vertex="1" connectable="0" parent="Kv4apIEkA6WufgwFAct2-4">
          <mxGeometry x="0.1739" y="1" relative="1" as="geometry">
            <mxPoint x="-1" y="5" as="offset" />
          </mxGeometry>
        </mxCell>
        <mxCell id="Kv4apIEkA6WufgwFAct2-23" style="edgeStyle=orthogonalEdgeStyle;rounded=0;orthogonalLoop=1;jettySize=auto;html=1;exitX=1;exitY=0.75;exitDx=0;exitDy=0;entryX=0.5;entryY=1;entryDx=0;entryDy=0;flowAnimation=1;" edge="1" parent="1" source="Kv4apIEkA6WufgwFAct2-1" target="Kv4apIEkA6WufgwFAct2-8">
          <mxGeometry relative="1" as="geometry">
            <Array as="points">
              <mxPoint x="270" y="125" />
              <mxPoint x="270" y="220" />
              <mxPoint x="180" y="220" />
            </Array>
          </mxGeometry>
        </mxCell>
        <mxCell id="Kv4apIEkA6WufgwFAct2-24" value="set state when&lt;br&gt;&amp;nbsp;change event called" style="edgeLabel;html=1;align=center;verticalAlign=middle;resizable=0;points=[];" vertex="1" connectable="0" parent="Kv4apIEkA6WufgwFAct2-23">
          <mxGeometry x="0.0473" y="-2" relative="1" as="geometry">
            <mxPoint as="offset" />
          </mxGeometry>
        </mxCell>
        <mxCell id="Kv4apIEkA6WufgwFAct2-1" value="Parent" style="rounded=0;whiteSpace=wrap;html=1;fillColor=#d5e8d4;strokeColor=#82b366;" vertex="1" parent="1">
          <mxGeometry x="120" y="80" width="120" height="60" as="geometry" />
        </mxCell>
        <mxCell id="Kv4apIEkA6WufgwFAct2-6" style="edgeStyle=orthogonalEdgeStyle;rounded=0;orthogonalLoop=1;jettySize=auto;html=1;entryX=0.5;entryY=0;entryDx=0;entryDy=0;flowAnimation=1;" edge="1" parent="1" source="Kv4apIEkA6WufgwFAct2-2" target="Kv4apIEkA6WufgwFAct2-3">
          <mxGeometry relative="1" as="geometry" />
        </mxCell>
        <mxCell id="Kv4apIEkA6WufgwFAct2-7" value="state and &lt;br&gt;change event as props" style="edgeLabel;html=1;align=center;verticalAlign=middle;resizable=0;points=[];" vertex="1" connectable="0" parent="Kv4apIEkA6WufgwFAct2-6">
          <mxGeometry x="0.0348" y="-1" relative="1" as="geometry">
            <mxPoint x="1" y="31" as="offset" />
          </mxGeometry>
        </mxCell>
        <mxCell id="Kv4apIEkA6WufgwFAct2-26" style="edgeStyle=orthogonalEdgeStyle;rounded=0;orthogonalLoop=1;jettySize=auto;html=1;exitX=1;exitY=0.75;exitDx=0;exitDy=0;entryX=0.5;entryY=1;entryDx=0;entryDy=0;flowAnimation=1;" edge="1" parent="1" source="Kv4apIEkA6WufgwFAct2-2" target="Kv4apIEkA6WufgwFAct2-9">
          <mxGeometry relative="1" as="geometry">
            <Array as="points">
              <mxPoint x="420" y="285" />
              <mxPoint x="420" y="370" />
              <mxPoint x="340" y="370" />
            </Array>
          </mxGeometry>
        </mxCell>
        <mxCell id="Kv4apIEkA6WufgwFAct2-28" value="set state when&lt;br&gt;change event called" style="edgeLabel;html=1;align=center;verticalAlign=middle;resizable=0;points=[];" vertex="1" connectable="0" parent="Kv4apIEkA6WufgwFAct2-26">
          <mxGeometry x="0.2085" y="-1" relative="1" as="geometry">
            <mxPoint x="-33" as="offset" />
          </mxGeometry>
        </mxCell>
        <mxCell id="Kv4apIEkA6WufgwFAct2-2" value="Child" style="rounded=0;whiteSpace=wrap;html=1;fillColor=#dae8fc;strokeColor=#6c8ebf;" vertex="1" parent="1">
          <mxGeometry x="280" y="240" width="120" height="60" as="geometry" />
        </mxCell>
        <mxCell id="Kv4apIEkA6WufgwFAct2-3" value="GrandChild" style="rounded=0;whiteSpace=wrap;html=1;fillColor=#f5f5f5;fontColor=#333333;strokeColor=#666666;" vertex="1" parent="1">
          <mxGeometry x="440" y="400" width="120" height="60" as="geometry" />
        </mxCell>
        <mxCell id="Kv4apIEkA6WufgwFAct2-8" value="state" style="rounded=1;whiteSpace=wrap;html=1;" vertex="1" parent="1">
          <mxGeometry x="150" y="140" width="60" height="20" as="geometry" />
        </mxCell>
        <mxCell id="Kv4apIEkA6WufgwFAct2-15" style="edgeStyle=orthogonalEdgeStyle;rounded=0;orthogonalLoop=1;jettySize=auto;html=1;entryX=0;entryY=0.5;entryDx=0;entryDy=0;flowAnimation=1;" edge="1" parent="1" source="Kv4apIEkA6WufgwFAct2-9" target="Kv4apIEkA6WufgwFAct2-1">
          <mxGeometry relative="1" as="geometry" />
        </mxCell>
        <mxCell id="Kv4apIEkA6WufgwFAct2-16" value="props.change(child&#39;s state)" style="edgeLabel;html=1;align=center;verticalAlign=middle;resizable=0;points=[];" vertex="1" connectable="0" parent="Kv4apIEkA6WufgwFAct2-15">
          <mxGeometry x="0.1535" y="-1" relative="1" as="geometry">
            <mxPoint y="-12" as="offset" />
          </mxGeometry>
        </mxCell>
        <mxCell id="Kv4apIEkA6WufgwFAct2-9" value="state" style="rounded=1;whiteSpace=wrap;html=1;" vertex="1" parent="1">
          <mxGeometry x="310" y="300" width="60" height="20" as="geometry" />
        </mxCell>
        <mxCell id="Kv4apIEkA6WufgwFAct2-13" style="edgeStyle=orthogonalEdgeStyle;rounded=0;orthogonalLoop=1;jettySize=auto;html=1;entryX=0;entryY=0.5;entryDx=0;entryDy=0;flowAnimation=1;" edge="1" parent="1" source="Kv4apIEkA6WufgwFAct2-10" target="Kv4apIEkA6WufgwFAct2-2">
          <mxGeometry relative="1" as="geometry" />
        </mxCell>
        <mxCell id="Kv4apIEkA6WufgwFAct2-14" value="props.change(grand child&#39;s state)" style="edgeLabel;html=1;align=center;verticalAlign=middle;resizable=0;points=[];" vertex="1" connectable="0" parent="Kv4apIEkA6WufgwFAct2-13">
          <mxGeometry x="0.0977" y="1" relative="1" as="geometry">
            <mxPoint y="-14" as="offset" />
          </mxGeometry>
        </mxCell>
        <mxCell id="Kv4apIEkA6WufgwFAct2-10" value="state" style="rounded=1;whiteSpace=wrap;html=1;" vertex="1" parent="1">
          <mxGeometry x="470" y="460" width="60" height="20" as="geometry" />
        </mxCell>
        <mxCell id="Kv4apIEkA6WufgwFAct2-17" style="edgeStyle=orthogonalEdgeStyle;rounded=0;orthogonalLoop=1;jettySize=auto;html=1;" edge="1" parent="1">
          <mxGeometry relative="1" as="geometry">
            <mxPoint x="370" y="240" as="sourcePoint" />
            <mxPoint x="400" y="260" as="targetPoint" />
            <Array as="points">
              <mxPoint x="370" y="190" />
              <mxPoint x="660" y="190" />
              <mxPoint x="660" y="260" />
            </Array>
          </mxGeometry>
        </mxCell>
        <mxCell id="Kv4apIEkA6WufgwFAct2-21" value="watch props change to update state" style="edgeLabel;html=1;align=center;verticalAlign=middle;resizable=0;points=[];" vertex="1" connectable="0" parent="Kv4apIEkA6WufgwFAct2-17">
          <mxGeometry x="-0.3801" y="4" relative="1" as="geometry">
            <mxPoint x="-18" as="offset" />
          </mxGeometry>
        </mxCell>
        <mxCell id="Kv4apIEkA6WufgwFAct2-19" style="edgeStyle=orthogonalEdgeStyle;rounded=0;orthogonalLoop=1;jettySize=auto;html=1;exitX=0.75;exitY=0;exitDx=0;exitDy=0;entryX=1;entryY=0.5;entryDx=0;entryDy=0;shadow=0;" edge="1" parent="1" source="Kv4apIEkA6WufgwFAct2-3" target="Kv4apIEkA6WufgwFAct2-3">
          <mxGeometry relative="1" as="geometry">
            <Array as="points">
              <mxPoint x="530" y="380" />
              <mxPoint x="800" y="380" />
              <mxPoint x="800" y="430" />
            </Array>
          </mxGeometry>
        </mxCell>
        <mxCell id="Kv4apIEkA6WufgwFAct2-20" value="watch props change to update state" style="edgeLabel;html=1;align=center;verticalAlign=middle;resizable=0;points=[];" vertex="1" connectable="0" parent="Kv4apIEkA6WufgwFAct2-19">
          <mxGeometry x="-0.4862" y="1" relative="1" as="geometry">
            <mxPoint x="11" as="offset" />
          </mxGeometry>
        </mxCell>
        <mxCell id="Kv4apIEkA6WufgwFAct2-29" value="&lt;h1 style=&quot;margin-top: 0px;&quot;&gt;&lt;p style=&quot;margin: 0px; font-variant-numeric: normal; font-variant-east-asian: normal; font-variant-alternates: normal; font-size-adjust: none; font-kerning: auto; font-optical-sizing: auto; font-feature-settings: normal; font-variation-settings: normal; font-variant-position: normal; font-stretch: normal; line-height: normal; font-family: &amp;quot;Helvetica Neue&amp;quot;;&quot; class=&quot;p1&quot;&gt;&lt;font style=&quot;font-size: 14px;&quot;&gt;When state is transformed as props to child and grandchild components, and these components have their own states initialized by props. When the child and grandchild components set their state (state changes), they will invoke the props.change event to synchronize the state with their parent component. Subsequently, the parent component will modify the state within the change callback event. As a result, a change in the parent&#39;s state will trigger a change in the child component&#39;s props, leading to the child component re-rendering. The same situation applies to the grandchild component as well.&lt;/font&gt;&lt;/p&gt;&lt;/h1&gt;" style="text;html=1;whiteSpace=wrap;overflow=hidden;rounded=0;" vertex="1" parent="1">
          <mxGeometry x="170" y="510" width="550" height="235" as="geometry" />
        </mxCell>
      </root>
    </mxGraphModel>
  </diagram>
</mxfile>
